<svg xmlns="http://www.w3.org/2000/svg" xmlns:xlink="http://www.w3.org/1999/xlink" width="500" zoomAndPan="magnify" viewBox="0 0 375 374.999991" height="500" preserveAspectRatio="xMidYMid meet" version="1.0"><defs><clipPath id="0314e50757"><path d="M 15.984375 54 L 358 54 L 358 321 L 15.984375 321 Z M 15.984375 54 " clip-rule="nonzero"/></clipPath></defs><g clip-path="url(#0314e50757)"><path fill="#ffffff" d="M 180.390625 281.292969 Z M 110.683594 320.738281 L 125.105469 271.191406 L 135.203125 257.722656 L 139.046875 259.644531 L 134.242188 275.519531 L 137.125 276.964844 L 148.660156 264.457031 L 152.027344 266.378906 L 145.777344 283.699219 L 110.683594 320.257812 Z M 159.71875 290.914062 L 179.910156 281.292969 C 186.636719 285.140625 194.808594 287.546875 202.984375 287.546875 C 214.519531 287.546875 225.09375 283.214844 233.269531 276.480469 C 246.726562 288.027344 264.035156 295.242188 282.78125 295.242188 C 324.121094 295.242188 357.773438 261.570312 357.773438 220.199219 C 357.773438 179.308594 325.085938 146.117188 284.703125 145.152344 C 285.664062 139.863281 286.628906 134.570312 286.628906 129.277344 C 286.628906 87.910156 252.976562 54.234375 211.636719 54.234375 C 176.0625 54.234375 146.257812 78.769531 138.566406 111.960938 C 130.394531 104.746094 119.339844 99.933594 107.320312 99.933594 C 81.363281 99.933594 60.210938 121.101562 60.210938 147.078125 C 60.210938 149.484375 60.210938 151.40625 60.691406 153.8125 C 34.25 161.507812 15.023438 185.5625 15.023438 214.425781 C 15.023438 249.0625 43.386719 277.445312 77.996094 277.445312 L 117.414062 277.445312 L 110.203125 320.738281 L 150.105469 287.066406 L 153.46875 277.445312 L 154.429688 277.445312 Z M 143.855469 204.804688 C 157.796875 172.09375 176.0625 143.230469 216.441406 135.050781 C 227.980469 172.574219 215.960938 204.324219 191.445312 233.1875 C 194.808594 239.921875 197.695312 247.136719 196.734375 253.871094 C 195.292969 263.011719 188.5625 267.34375 181.832031 273.113281 L 175.582031 278.40625 L 159.71875 291.394531 L 159.71875 259.644531 L 152.027344 264.457031 L 137.605469 255.796875 L 137.605469 246.175781 L 109.242188 263.011719 L 114.53125 229.339844 C 115.972656 220.199219 116.453125 215.386719 125.105469 210.097656 C 131.355469 206.246094 138.085938 205.765625 144.816406 205.285156 Z M 143.855469 204.804688 " fill-opacity="1" fill-rule="evenodd"/></g><path fill="#ffffff" d="M 212.597656 143.230469 L 207.308594 151.886719 C 213.558594 173.054688 206.347656 197.589844 190.003906 224.527344 C 209.710938 199.992188 219.808594 174.015625 212.117188 142.75 Z M 212.597656 143.230469 " fill-opacity="1" fill-rule="evenodd"/></svg>