<svg xmlns="http://www.w3.org/2000/svg" xmlns:xlink="http://www.w3.org/1999/xlink" width="500" zoomAndPan="magnify" viewBox="0 0 375 374.999991" height="500" preserveAspectRatio="xMidYMid meet" version="1.0"><defs><clipPath id="8ca9feefc8"><path d="M 5.265625 45.300781 L 369 45.300781 L 369 291.300781 L 5.265625 291.300781 Z M 5.265625 45.300781 " clip-rule="nonzero"/></clipPath><clipPath id="4626adbaf1"><path d="M 3 313.839844 L 372 313.839844 L 372 338.589844 L 3 338.589844 Z M 3 313.839844 " clip-rule="nonzero"/></clipPath></defs><g clip-path="url(#8ca9feefc8)"><path fill="#ffffff" d="M 5.363281 291.285156 L 52.703125 291.285156 L 52.703125 97.933594 C 94.984375 107.84375 131.972656 130.96875 159.058594 163.117188 C 144.085938 187.5625 133.296875 214.652344 127.566406 243.933594 C 124.484375 259.132812 122.941406 274.984375 122.941406 291.28125 C 204.859375 291.28125 286.992188 291.28125 368.910156 291.28125 C 368.910156 238.203125 368.910156 185.136719 368.910156 132.058594 C 352.398438 132.058594 336.539062 134.699219 321.566406 139.324219 C 283.691406 150.996094 251.984375 176.539062 232.164062 209.792969 L 292.5 209.792969 C 300.867188 201.867188 310.777344 195.257812 321.566406 190.195312 L 321.566406 243.925781 C 273.121094 243.925781 224.453125 243.925781 176.015625 243.925781 C 179.097656 231.8125 183.0625 220.140625 188.128906 208.914062 C 195.835938 192.398438 205.746094 176.757812 217.417969 163.109375 C 244.058594 131.617188 280.171875 108.492188 321.574219 98.363281 C 336.773438 94.617188 352.625 92.640625 368.917969 92.640625 L 368.917969 45.300781 C 352.625 45.300781 336.765625 46.84375 321.574219 49.925781 C 269.164062 60.054688 222.921875 86.925781 188.128906 124.359375 C 152.898438 86.261719 105.777344 59.394531 52.703125 49.484375 C 37.070312 46.625 21.210938 45.300781 5.363281 45.300781 Z M 5.363281 291.285156 " fill-opacity="1" fill-rule="evenodd"/></g><g clip-path="url(#4626adbaf1)"><path fill="#d9d9d9" d="M 359.273438 313.839844 L 15.726562 313.839844 C 8.949219 313.839844 3.457031 319.382812 3.457031 326.214844 C 3.457031 333.050781 8.949219 338.589844 15.726562 338.589844 L 359.273438 338.589844 C 366.050781 338.589844 371.542969 333.050781 371.542969 326.214844 C 371.542969 319.382812 366.050781 313.839844 359.273438 313.839844 Z M 359.273438 313.839844 " fill-opacity="1" fill-rule="nonzero"/></g></svg>