<svg xmlns="http://www.w3.org/2000/svg" xmlns:xlink="http://www.w3.org/1999/xlink" width="500" zoomAndPan="magnify" viewBox="0 0 375 374.999991" height="500" preserveAspectRatio="xMidYMid meet" version="1.0"><defs><g/><clipPath id="ab7937c4a1"><path d="M 103.605469 86.136719 L 271.605469 86.136719 L 271.605469 254.136719 L 103.605469 254.136719 Z M 103.605469 86.136719 " clip-rule="nonzero"/></clipPath><clipPath id="28353f5d31"><path d="M 74.460938 58.246094 L 300.210938 58.246094 L 300.210938 316.996094 L 74.460938 316.996094 Z M 74.460938 58.246094 " clip-rule="nonzero"/></clipPath></defs><path fill="#ffffff" d="M 104.726562 87.257812 L 270.484375 87.257812 L 270.484375 253.015625 L 104.726562 253.015625 Z M 104.726562 87.257812 " fill-opacity="1" fill-rule="nonzero"/><g clip-path="url(#ab7937c4a1)"><path fill="#ffffff" d="M 270.484375 254.136719 L 104.726562 254.136719 C 104.097656 254.136719 103.605469 253.644531 103.605469 253.015625 L 103.605469 87.257812 C 103.605469 86.628906 104.097656 86.136719 104.726562 86.136719 L 270.484375 86.136719 C 271.113281 86.136719 271.605469 86.628906 271.605469 87.257812 L 271.605469 253.015625 C 271.605469 253.644531 271.113281 254.136719 270.484375 254.136719 Z M 105.84375 251.898438 L 269.367188 251.898438 L 269.367188 88.378906 L 105.84375 88.378906 Z M 105.84375 251.898438 " fill-opacity="1" fill-rule="nonzero"/></g><g clip-path="url(#28353f5d31)"><path fill="#ff3131" d="M 273.765625 58.304688 L 100.910156 58.304688 C 86.332031 58.304688 74.460938 70.203125 74.460938 84.941406 L 74.460938 259.761719 C 74.460938 274.496094 86.332031 286.394531 100.910156 286.394531 L 247.195312 286.394531 L 240.351562 262.476562 L 256.871094 277.855469 L 272.476562 292.34375 L 300.210938 316.90625 L 300.210938 84.933594 C 300.210938 70.199219 288.34375 58.300781 273.765625 58.300781 Z M 223.976562 227.175781 C 223.976562 227.175781 219.332031 221.617188 215.460938 216.703125 C 232.355469 211.921875 238.8125 201.3125 238.8125 201.3125 C 233.519531 204.804688 228.492188 207.261719 223.976562 208.941406 C 217.523438 211.65625 211.332031 213.46875 205.265625 214.503906 C 192.882812 216.835938 181.535156 216.183594 171.863281 214.378906 C 164.507812 212.957031 158.183594 210.886719 152.894531 208.820312 C 149.929688 207.652344 146.703125 206.230469 143.476562 204.417969 C 143.089844 204.160156 142.703125 204.027344 142.316406 203.773438 C 142.058594 203.648438 141.929688 203.515625 141.800781 203.382812 C 139.480469 202.09375 138.1875 201.191406 138.1875 201.191406 C 138.1875 201.191406 144.382812 211.53125 160.765625 216.445312 C 156.894531 221.363281 152.121094 227.175781 152.121094 227.175781 C 123.613281 226.277344 112.777344 207.519531 112.777344 207.519531 C 112.777344 165.886719 131.351562 132.136719 131.351562 132.136719 C 149.925781 118.171875 167.601562 118.5625 167.601562 118.5625 L 168.890625 120.113281 C 145.671875 126.835938 134.964844 137.050781 134.964844 137.050781 C 134.964844 137.050781 137.800781 135.5 142.574219 133.300781 C 156.378906 127.226562 167.347656 125.542969 171.863281 125.15625 C 172.628906 125.027344 173.273438 124.898438 174.046875 124.898438 C 181.921875 123.863281 190.820312 123.605469 200.105469 124.640625 C 212.363281 126.0625 225.519531 129.683594 238.933594 137.050781 C 238.933594 137.050781 228.75 127.355469 206.816406 120.628906 L 208.625 118.5625 C 208.625 118.5625 226.296875 118.171875 244.867188 132.136719 C 244.867188 132.136719 263.449219 165.886719 263.449219 207.519531 C 263.449219 207.519531 252.480469 226.277344 223.976562 227.175781 Z M 163.988281 166.789062 C 156.636719 166.789062 150.832031 173.257812 150.832031 181.144531 C 150.832031 189.027344 156.765625 195.5 163.988281 195.5 C 171.339844 195.5 177.144531 189.027344 177.144531 181.144531 C 177.277344 173.257812 171.339844 166.789062 163.988281 166.789062 M 211.078125 166.789062 C 203.722656 166.789062 197.917969 173.257812 197.917969 181.144531 C 197.917969 189.027344 203.847656 195.5 211.078125 195.5 C 218.421875 195.5 224.234375 189.027344 224.234375 181.144531 C 224.234375 173.257812 218.421875 166.789062 211.078125 166.789062 " fill-opacity="1" fill-rule="nonzero"/></g><g fill="#ffffff" fill-opacity="1"><g transform="translate(120.919933, 100.579749)"><g><path d="M 7.910156 0.1875 C 12.078125 0.1875 16.730469 -0.8125 16.730469 -4.046875 C 16.730469 -5.933594 14.9375 -7.886719 11.121094 -8.609375 C 10.65625 -8.75 10.679688 -9.074219 11.121094 -9.238281 C 14.21875 -9.84375 15.9375 -11.425781 15.9375 -13.167969 C 15.9375 -15.355469 13.683594 -16.402344 9.355469 -16.402344 C 6.65625 -16.402344 4.28125 -16.425781 1.675781 -16.289062 C 1.328125 -16.265625 1.09375 -16.03125 1.070312 -15.707031 C 0.769531 -12.261719 0.464844 -6.328125 0.464844 -0.769531 C 0.464844 -0.371094 0.769531 -0.0234375 1.1875 0 C 2.722656 0.09375 6.210938 0.1875 7.910156 0.1875 Z M 7.167969 -9.703125 C 6.769531 -9.632812 6.492188 -9.796875 6.492188 -10.191406 C 6.46875 -10.796875 6.46875 -11.449219 6.492188 -12.054688 C 6.492188 -12.425781 6.722656 -12.632812 7.144531 -12.632812 C 7.398438 -12.65625 7.792969 -12.65625 8.121094 -12.65625 C 9.402344 -12.65625 10.074219 -12.285156 10.074219 -11.519531 C 10.074219 -10.773438 9.355469 -10.003906 7.167969 -9.703125 Z M 7.257812 -4.164062 C 6.769531 -4.164062 6.492188 -4.421875 6.492188 -4.910156 C 6.46875 -5.652344 6.46875 -6.398438 6.492188 -7.144531 C 6.492188 -7.585938 6.746094 -7.839844 7.191406 -7.75 C 9.402344 -7.46875 10.65625 -6.679688 10.65625 -5.675781 C 10.65625 -4.699219 9.867188 -4.140625 8.632812 -4.140625 C 8.238281 -4.140625 7.65625 -4.140625 7.257812 -4.164062 Z M 7.257812 -4.164062 "/></g></g></g><g fill="#ffffff" fill-opacity="1"><g transform="translate(137.927972, 100.579749)"><g><path d="M 7.46875 0.1875 C 11.65625 0.1875 14.636719 -1.511719 14.636719 -5.980469 C 14.636719 -10.191406 11.679688 -12.84375 7.46875 -12.84375 C 3.257812 -12.84375 0.277344 -10.191406 0.277344 -5.980469 C 0.277344 -1.511719 3.28125 0.1875 7.46875 0.1875 Z M 7.46875 -3.886719 C 6.328125 -3.886719 5.515625 -4.816406 5.515625 -6.304688 C 5.515625 -7.75 6.304688 -8.796875 7.46875 -8.796875 C 8.632812 -8.796875 9.421875 -7.75 9.421875 -6.304688 C 9.421875 -4.816406 8.609375 -3.886719 7.46875 -3.886719 Z M 7.46875 -3.886719 "/></g></g></g><g fill="#ffffff" fill-opacity="1"><g transform="translate(152.842, 100.579749)"><g><path d="M 7.492188 0.1875 C 8.933594 0.1875 10.238281 -0.0234375 11.425781 -0.347656 C 11.703125 -0.464844 11.9375 -0.769531 11.9375 -1.1875 C 11.960938 -1.953125 11.984375 -3.46875 11.960938 -4.328125 C 11.9375 -4.886719 11.496094 -5.074219 11.144531 -4.816406 C 10.75 -4.605469 9.980469 -4.398438 9.492188 -4.398438 C 8.515625 -4.398438 7.773438 -4.863281 7.726562 -5.792969 C 7.679688 -6.515625 7.679688 -7.351562 7.75 -8.167969 C 7.792969 -8.5625 8.050781 -8.820312 8.539062 -8.820312 C 9.261719 -8.820312 10.378906 -8.773438 11.097656 -8.726562 C 11.449219 -8.679688 11.75 -9.027344 11.75 -9.402344 L 11.75 -12.007812 C 11.75 -12.378906 11.449219 -12.679688 11.097656 -12.679688 C 10.191406 -12.679688 9.121094 -12.632812 8.214844 -12.632812 C 8.027344 -12.632812 7.886719 -12.820312 7.886719 -13.101562 C 7.886719 -13.683594 8.003906 -14.261719 8.121094 -14.914062 C 8.167969 -15.289062 7.863281 -15.613281 7.492188 -15.660156 C 6.839844 -15.730469 5.585938 -15.753906 5.003906 -15.753906 C 4.445312 -15.730469 3.582031 -15.730469 3.023438 -15.660156 C 2.699219 -15.613281 2.441406 -15.355469 2.398438 -15.03125 C 2.328125 -14.425781 2.28125 -13.589844 2.257812 -12.960938 C 2.234375 -12.796875 2.117188 -12.65625 1.929688 -12.65625 L 0.792969 -12.65625 C 0.441406 -12.65625 0.1875 -12.378906 0.164062 -12.03125 C 0.164062 -11.144531 0.140625 -10.285156 0.164062 -9.421875 C 0.1875 -9.074219 0.441406 -8.773438 0.792969 -8.773438 C 1.117188 -8.796875 1.441406 -8.796875 1.746094 -8.796875 C 1.929688 -8.820312 2.09375 -8.679688 2.070312 -8.492188 C 1.882812 -7.050781 1.882812 -5.5625 1.882812 -4.582031 C 1.882812 -1.257812 4.304688 0.1875 7.492188 0.1875 Z M 7.492188 0.1875 "/></g></g></g><g fill="#ffffff" fill-opacity="1"><g transform="translate(164.987272, 100.579749)"><g><path d="M 8.609375 -4.234375 C 9.167969 -4.234375 9.445312 -4.539062 9.445312 -5.074219 L 9.445312 -6.375 C 9.445312 -6.910156 9.167969 -7.191406 8.609375 -7.191406 L 1.722656 -7.191406 C 1.1875 -7.191406 0.882812 -6.910156 0.882812 -6.375 L 0.882812 -5.074219 C 0.882812 -4.539062 1.1875 -4.234375 1.722656 -4.234375 Z M 8.609375 -4.234375 "/></g></g></g><g fill="#ffffff" fill-opacity="1"><g transform="translate(175.341006, 100.579749)"><g><path d="M 8.632812 0.09375 C 9.492188 0.09375 11.167969 0.09375 12.078125 0 C 12.355469 -0.046875 12.589844 -0.210938 12.726562 -0.464844 C 14.332031 -3.910156 16.265625 -9.9375 17.078125 -15.566406 C 17.148438 -15.960938 16.917969 -16.265625 16.519531 -16.289062 C 15.867188 -16.359375 14.542969 -16.382812 13.9375 -16.382812 C 13.355469 -16.382812 11.890625 -16.335938 11.238281 -16.289062 C 10.890625 -16.265625 10.632812 -16.007812 10.632812 -15.683594 C 10.492188 -12.097656 9.84375 -7.539062 9.050781 -5.398438 C 8.796875 -4.722656 8.515625 -4.722656 8.285156 -5.398438 C 7.492188 -7.5625 6.863281 -12.097656 6.703125 -15.660156 C 6.703125 -16.03125 6.421875 -16.265625 6.097656 -16.289062 C 5.398438 -16.335938 3.910156 -16.382812 3.234375 -16.382812 C 2.582031 -16.382812 1.464844 -16.335938 0.835938 -16.289062 C 0.417969 -16.242188 0.164062 -15.9375 0.234375 -15.566406 C 1.070312 -9.914062 3.023438 -3.910156 4.605469 -0.464844 C 4.746094 -0.1875 4.957031 -0.0234375 5.257812 0 C 6.144531 0.09375 7.792969 0.09375 8.632812 0.09375 Z M 8.632812 0.09375 "/></g></g></g><g fill="#ffffff" fill-opacity="1"><g transform="translate(192.674785, 100.579749)"><g><path d="M 8.609375 -4.234375 C 9.167969 -4.234375 9.445312 -4.539062 9.445312 -5.074219 L 9.445312 -6.375 C 9.445312 -6.910156 9.167969 -7.191406 8.609375 -7.191406 L 1.722656 -7.191406 C 1.1875 -7.191406 0.882812 -6.910156 0.882812 -6.375 L 0.882812 -5.074219 C 0.882812 -4.539062 1.1875 -4.234375 1.722656 -4.234375 Z M 8.609375 -4.234375 "/></g></g></g><g fill="#ffffff" fill-opacity="1"><g transform="translate(203.028519, 100.579749)"><g><path d="M 3.675781 0.09375 C 4.304688 0.09375 5.398438 0.0703125 6.003906 0 C 6.375 -0.046875 6.632812 -0.300781 6.609375 -0.699219 C 6.421875 -5.609375 6.46875 -11.449219 6.933594 -15.867188 C 6.980469 -16.265625 6.703125 -16.566406 6.328125 -16.613281 C 5.632812 -16.683594 4.398438 -16.683594 3.792969 -16.683594 C 3.210938 -16.683594 2.234375 -16.660156 1.652344 -16.589844 C 1.304688 -16.542969 1.046875 -16.3125 1 -15.984375 C 0.746094 -12.519531 0.464844 -6.074219 0.464844 -0.699219 C 0.464844 -0.324219 0.746094 -0.046875 1.09375 0 C 1.792969 0.0703125 3 0.09375 3.675781 0.09375 Z M 3.675781 0.09375 "/></g></g></g><g fill="#ffffff" fill-opacity="1"><g transform="translate(210.427367, 100.579749)"><g><path d="M 7.46875 0.1875 C 11.65625 0.1875 14.636719 -1.511719 14.636719 -5.980469 C 14.636719 -10.191406 11.679688 -12.84375 7.46875 -12.84375 C 3.257812 -12.84375 0.277344 -10.191406 0.277344 -5.980469 C 0.277344 -1.511719 3.28125 0.1875 7.46875 0.1875 Z M 7.46875 -3.886719 C 6.328125 -3.886719 5.515625 -4.816406 5.515625 -6.304688 C 5.515625 -7.75 6.304688 -8.796875 7.46875 -8.796875 C 8.632812 -8.796875 9.421875 -7.75 9.421875 -6.304688 C 9.421875 -4.816406 8.609375 -3.886719 7.46875 -3.886719 Z M 7.46875 -3.886719 "/></g></g></g><g fill="#ffffff" fill-opacity="1"><g transform="translate(225.341395, 100.579749)"><g><path d="M 7.398438 0.09375 C 8.097656 0.09375 9.980469 0.09375 10.703125 0 C 10.984375 -0.046875 11.144531 -0.1875 11.261719 -0.417969 C 12.542969 -3.070312 14.03125 -7.792969 14.566406 -11.984375 C 14.613281 -12.308594 14.449219 -12.613281 14.078125 -12.65625 C 13.566406 -12.726562 12.425781 -12.75 11.890625 -12.75 C 11.355469 -12.75 9.890625 -12.726562 9.332031 -12.65625 C 9.027344 -12.613281 8.796875 -12.378906 8.796875 -12.054688 C 8.796875 -9.820312 8.285156 -5.863281 7.75 -4.1875 C 7.585938 -3.558594 7.238281 -3.558594 7.050781 -4.1875 C 6.539062 -5.863281 6.027344 -9.796875 6.003906 -12.054688 C 6.003906 -12.355469 5.792969 -12.613281 5.46875 -12.65625 C 4.957031 -12.703125 3.511719 -12.75 3 -12.75 C 2.464844 -12.75 1.257812 -12.703125 0.699219 -12.65625 C 0.347656 -12.613281 0.1875 -12.308594 0.234375 -11.984375 C 0.746094 -7.816406 2.234375 -3.070312 3.535156 -0.417969 C 3.628906 -0.1875 3.816406 -0.046875 4.09375 0 C 4.839844 0.09375 6.703125 0.09375 7.398438 0.09375 Z M 7.398438 0.09375 "/></g></g></g><g fill="#ffffff" fill-opacity="1"><g transform="translate(240.139091, 100.579749)"><g><path d="M 7.773438 0.1875 C 9.632812 0.1875 11.9375 -0.0703125 13.238281 -0.835938 C 13.496094 -1.023438 13.636719 -1.28125 13.613281 -1.628906 C 13.566406 -2.441406 13.449219 -3.746094 13.355469 -4.5625 C 13.285156 -5.234375 12.773438 -5.398438 12.425781 -4.980469 C 11.261719 -3.957031 10.050781 -3.535156 8.421875 -3.535156 C 6.980469 -3.535156 5.398438 -4.234375 4.886719 -5.351562 C 4.628906 -5.769531 4.910156 -6.027344 5.28125 -5.746094 C 6.210938 -5.140625 7.28125 -4.863281 8.398438 -4.863281 C 10.84375 -4.863281 13.125 -6.328125 13.125 -8.421875 C 13.125 -11.378906 10.84375 -12.84375 7.167969 -12.84375 C 3.09375 -12.84375 0.277344 -10.539062 0.277344 -6.492188 C 0.277344 -2.1875 3.164062 0.1875 7.773438 0.1875 Z M 7.050781 -6.703125 C 6.28125 -6.703125 5.140625 -7.050781 5.140625 -7.773438 C 5.140625 -8.65625 6.003906 -9.285156 6.910156 -9.285156 C 7.957031 -9.285156 8.375 -8.75 8.375 -7.933594 C 8.375 -7.144531 7.839844 -6.703125 7.050781 -6.703125 Z M 7.050781 -6.703125 "/></g></g></g></svg>