<svg xmlns="http://www.w3.org/2000/svg" xmlns:xlink="http://www.w3.org/1999/xlink" width="500" zoomAndPan="magnify" viewBox="0 0 375 374.999991" height="500" preserveAspectRatio="xMidYMid meet" version="1.0"><defs><g/><clipPath id="f58df789d7"><path d="M 73.253906 55.8125 L 301.769531 55.8125 L 301.769531 319.484375 L 73.253906 319.484375 Z M 73.253906 55.8125 " clip-rule="nonzero"/></clipPath><clipPath id="5e6fc98b9e"><path d="M 90.503906 55.8125 L 284.496094 55.8125 C 289.070312 55.8125 293.457031 57.632812 296.691406 60.867188 C 299.925781 64.101562 301.746094 68.488281 301.746094 73.0625 L 301.746094 301.9375 C 301.746094 306.511719 299.925781 310.898438 296.691406 314.132812 C 293.457031 317.367188 289.070312 319.1875 284.496094 319.1875 L 90.503906 319.1875 C 85.929688 319.1875 81.542969 317.367188 78.308594 314.132812 C 75.074219 310.898438 73.253906 306.511719 73.253906 301.9375 L 73.253906 73.0625 C 73.253906 68.488281 75.074219 64.101562 78.308594 60.867188 C 81.542969 57.632812 85.929688 55.8125 90.503906 55.8125 " clip-rule="nonzero"/></clipPath><clipPath id="c5536d68e6"><path d="M 118.777344 78.058594 L 254 78.058594 L 254 228.058594 L 118.777344 228.058594 Z M 118.777344 78.058594 " clip-rule="nonzero"/></clipPath></defs><g clip-path="url(#f58df789d7)"><g clip-path="url(#5e6fc98b9e)"><path fill="#000000" d="M 73.253906 55.8125 L 301.769531 55.8125 L 301.769531 319.484375 L 73.253906 319.484375 Z M 73.253906 55.8125 " fill-opacity="1" fill-rule="nonzero"/></g></g><g clip-path="url(#c5536d68e6)"><path fill="#ff1616" d="M 166.085938 153.058594 L 193.71875 125.402344 L 221.351562 153.058594 L 193.71875 180.714844 Z M 202.222656 197.566406 C 197.550781 202.242188 189.890625 202.242188 185.195312 197.566406 L 149.25 161.570312 C 146.914062 159.230469 145.746094 156.15625 145.746094 153.058594 C 145.746094 149.960938 146.914062 146.886719 149.25 144.527344 L 185.195312 108.550781 C 189.890625 103.851562 197.550781 103.851562 202.222656 108.550781 L 225.140625 131.464844 C 227.585938 133.914062 231.566406 133.914062 234.011719 131.464844 L 248.921875 116.542969 C 254.15625 111.324219 254.523438 108.597656 249.589844 103.09375 C 235.871094 87.71875 215.921875 78.058594 193.71875 78.058594 C 189.152344 78.058594 184.695312 78.46875 180.347656 79.25 C 145.335938 85.550781 118.785156 116.199219 118.785156 153.058594 C 118.785156 189.921875 145.335938 220.566406 180.347656 226.867188 C 184.695312 227.648438 189.152344 228.058594 193.71875 228.058594 C 215.921875 228.058594 235.871094 218.378906 249.589844 203.023438 C 254.523438 197.5 254.15625 194.792969 248.921875 189.550781 L 234.011719 174.652344 C 231.566406 172.203125 227.585938 172.203125 225.140625 174.652344 Z M 202.222656 197.566406 " fill-opacity="1" fill-rule="evenodd"/></g><g fill="#ffde59" fill-opacity="1"><g transform="translate(97.365577, 254.36909)"><g><path d="M 8.171875 -15.65625 C 9.835938 -15.65625 11.304688 -15.328125 12.578125 -14.671875 C 13.847656 -14.023438 14.832031 -13.109375 15.53125 -11.921875 C 16.238281 -10.742188 16.59375 -9.382812 16.59375 -7.84375 C 16.59375 -6.289062 16.234375 -4.914062 15.515625 -3.71875 C 14.804688 -2.53125 13.800781 -1.613281 12.5 -0.96875 C 11.207031 -0.320312 9.710938 0 8.015625 0 L 1.3125 0 L 1.3125 -15.65625 Z M 8.3125 -3.640625 C 9.363281 -3.640625 10.21875 -4.019531 10.875 -4.78125 C 11.53125 -5.539062 11.859375 -6.546875 11.859375 -7.796875 C 11.859375 -9.046875 11.503906 -10.054688 10.796875 -10.828125 C 10.097656 -11.597656 9.191406 -11.984375 8.078125 -11.984375 L 5.96875 -11.984375 L 5.96875 -3.640625 Z M 8.3125 -3.640625 "/></g></g></g><g fill="#ffde59" fill-opacity="1"><g transform="translate(119.849966, 254.36909)"><g><path d="M 1.3125 0 L 1.3125 -15.65625 L 5.96875 -15.65625 L 5.96875 0 Z M 1.3125 0 "/></g></g></g><g fill="#ffde59" fill-opacity="1"><g transform="translate(132.600995, 254.36909)"><g><path d="M 15.765625 0 L 10.5 0 L 8.421875 -4.21875 L 5.96875 -4.21875 L 5.96875 0 L 1.3125 0 L 1.3125 -15.65625 L 8.625 -15.65625 C 10.71875 -15.65625 12.34375 -15.171875 13.5 -14.203125 C 14.65625 -13.234375 15.234375 -11.863281 15.234375 -10.09375 C 15.234375 -8.945312 15.003906 -7.953125 14.546875 -7.109375 C 14.085938 -6.265625 13.4375 -5.597656 12.59375 -5.109375 Z M 5.96875 -12.078125 L 5.96875 -7.796875 L 8.625 -7.796875 C 9.320312 -7.796875 9.859375 -7.976562 10.234375 -8.34375 C 10.617188 -8.71875 10.8125 -9.253906 10.8125 -9.953125 C 10.8125 -10.640625 10.617188 -11.164062 10.234375 -11.53125 C 9.859375 -11.894531 9.320312 -12.078125 8.625 -12.078125 Z M 5.96875 -12.078125 "/></g></g></g><g fill="#ffde59" fill-opacity="1"><g transform="translate(154.259383, 254.36909)"><g><path d="M 1.3125 0 L 1.3125 -15.65625 L 14.109375 -15.65625 L 14.109375 -12.078125 L 5.96875 -12.078125 L 5.96875 -9.625 L 13.359375 -9.625 L 13.359375 -6.046875 L 5.96875 -6.046875 L 5.96875 -3.578125 L 14.328125 -3.578125 L 14.328125 0 Z M 1.3125 0 "/></g></g></g><g fill="#ffde59" fill-opacity="1"><g transform="translate(174.980157, 254.36909)"><g><path d="M 12.640625 -9.953125 C 12.148438 -10.609375 11.566406 -11.125 10.890625 -11.5 C 10.210938 -11.882812 9.550781 -12.078125 8.90625 -12.078125 C 8.207031 -12.078125 7.570312 -11.894531 7 -11.53125 C 6.4375 -11.175781 5.992188 -10.679688 5.671875 -10.046875 C 5.347656 -9.421875 5.1875 -8.710938 5.1875 -7.921875 C 5.1875 -7.140625 5.347656 -6.429688 5.671875 -5.796875 C 5.992188 -5.160156 6.4375 -4.660156 7 -4.296875 C 7.570312 -3.929688 8.207031 -3.75 8.90625 -3.75 C 9.5 -3.75 10.132812 -3.910156 10.8125 -4.234375 C 11.488281 -4.566406 12.097656 -5.015625 12.640625 -5.578125 L 15.3125 -2.71875 C 14.46875 -1.800781 13.445312 -1.066406 12.25 -0.515625 C 11.050781 0.0351562 9.863281 0.3125 8.6875 0.3125 C 7.125 0.3125 5.710938 -0.0390625 4.453125 -0.75 C 3.191406 -1.457031 2.203125 -2.4375 1.484375 -3.6875 C 0.773438 -4.9375 0.421875 -6.332031 0.421875 -7.875 C 0.421875 -9.394531 0.785156 -10.769531 1.515625 -12 C 2.242188 -13.226562 3.25 -14.191406 4.53125 -14.890625 C 5.8125 -15.585938 7.25 -15.9375 8.84375 -15.9375 C 10.019531 -15.9375 11.195312 -15.679688 12.375 -15.171875 C 13.550781 -14.671875 14.53125 -14 15.3125 -13.15625 Z M 12.640625 -9.953125 "/></g></g></g><g fill="#ffde59" fill-opacity="1"><g transform="translate(195.857201, 254.36909)"><g><path d="M 0.140625 -11.953125 L 0.140625 -15.65625 L 13.890625 -15.65625 L 13.890625 -11.953125 L 9.328125 -11.953125 L 9.328125 0 L 4.671875 0 L 4.671875 -11.953125 Z M 0.140625 -11.953125 "/></g></g></g><g fill="#ffde59" fill-opacity="1"><g transform="translate(215.350138, 254.36909)"><g><path d="M 8.953125 -15.9375 C 10.554688 -15.9375 12.007812 -15.585938 13.3125 -14.890625 C 14.613281 -14.191406 15.632812 -13.226562 16.375 -12 C 17.113281 -10.769531 17.484375 -9.390625 17.484375 -7.859375 C 17.484375 -6.304688 17.113281 -4.910156 16.375 -3.671875 C 15.632812 -2.429688 14.613281 -1.457031 13.3125 -0.75 C 12.007812 -0.0390625 10.554688 0.3125 8.953125 0.3125 C 7.328125 0.3125 5.867188 -0.0390625 4.578125 -0.75 C 3.285156 -1.457031 2.269531 -2.429688 1.53125 -3.671875 C 0.789062 -4.910156 0.421875 -6.304688 0.421875 -7.859375 C 0.421875 -9.390625 0.789062 -10.769531 1.53125 -12 C 2.269531 -13.226562 3.285156 -14.191406 4.578125 -14.890625 C 5.867188 -15.585938 7.328125 -15.9375 8.953125 -15.9375 Z M 9.015625 -12.078125 C 8.335938 -12.078125 7.703125 -11.890625 7.109375 -11.515625 C 6.523438 -11.148438 6.054688 -10.640625 5.703125 -9.984375 C 5.359375 -9.335938 5.1875 -8.625 5.1875 -7.84375 C 5.1875 -7.050781 5.359375 -6.328125 5.703125 -5.671875 C 6.054688 -5.015625 6.523438 -4.492188 7.109375 -4.109375 C 7.703125 -3.734375 8.335938 -3.546875 9.015625 -3.546875 C 9.691406 -3.546875 10.316406 -3.734375 10.890625 -4.109375 C 11.460938 -4.492188 11.910156 -5.007812 12.234375 -5.65625 C 12.566406 -6.300781 12.734375 -7.03125 12.734375 -7.84375 C 12.734375 -8.625 12.566406 -9.335938 12.234375 -9.984375 C 11.910156 -10.640625 11.460938 -11.148438 10.890625 -11.515625 C 10.328125 -11.890625 9.703125 -12.078125 9.015625 -12.078125 Z M 9.015625 -12.078125 "/></g></g></g><g fill="#ffde59" fill-opacity="1"><g transform="translate(238.727487, 254.36909)"><g><path d="M 15.765625 0 L 10.5 0 L 8.421875 -4.21875 L 5.96875 -4.21875 L 5.96875 0 L 1.3125 0 L 1.3125 -15.65625 L 8.625 -15.65625 C 10.71875 -15.65625 12.34375 -15.171875 13.5 -14.203125 C 14.65625 -13.234375 15.234375 -11.863281 15.234375 -10.09375 C 15.234375 -8.945312 15.003906 -7.953125 14.546875 -7.109375 C 14.085938 -6.265625 13.4375 -5.597656 12.59375 -5.109375 Z M 5.96875 -12.078125 L 5.96875 -7.796875 L 8.625 -7.796875 C 9.320312 -7.796875 9.859375 -7.976562 10.234375 -8.34375 C 10.617188 -8.71875 10.8125 -9.253906 10.8125 -9.953125 C 10.8125 -10.640625 10.617188 -11.164062 10.234375 -11.53125 C 9.859375 -11.894531 9.320312 -12.078125 8.625 -12.078125 Z M 5.96875 -12.078125 "/></g></g></g><g fill="#ffde59" fill-opacity="1"><g transform="translate(260.385875, 254.36909)"><g><path d="M 11.203125 -15.65625 L 15.828125 -15.65625 L 10.203125 -4.953125 L 10.203125 0 L 5.5625 0 L 5.5625 -4.875 L -0.171875 -15.65625 L 4.46875 -15.65625 L 7.875 -9.265625 Z M 11.203125 -15.65625 "/></g></g></g><g fill="#ff1616" fill-opacity="1"><g transform="translate(102.069193, 276.119103)"><g><path d="M 11.390625 0 L 8.203125 0 L 7.609375 -1.609375 L 3.5625 -1.609375 L 2.953125 0 L -0.109375 0 L 4.171875 -10.0625 L 7.25 -10.0625 Z M 5.625 -7.078125 L 4.390625 -3.78125 L 6.828125 -3.78125 Z M 5.625 -7.078125 "/></g></g></g><g fill="#ff1616" fill-opacity="1"><g transform="translate(116.847622, 276.119103)"><g><path d="M 5.25 -10.0625 C 6.320312 -10.0625 7.265625 -9.851562 8.078125 -9.4375 C 8.898438 -9.019531 9.535156 -8.429688 9.984375 -7.671875 C 10.429688 -6.910156 10.65625 -6.03125 10.65625 -5.03125 C 10.65625 -4.039062 10.425781 -3.160156 9.96875 -2.390625 C 9.507812 -1.628906 8.863281 -1.039062 8.03125 -0.625 C 7.195312 -0.207031 6.238281 0 5.15625 0 L 0.84375 0 L 0.84375 -10.0625 Z M 5.328125 -2.34375 C 6.015625 -2.34375 6.566406 -2.582031 6.984375 -3.0625 C 7.398438 -3.550781 7.609375 -4.195312 7.609375 -5 C 7.609375 -5.800781 7.382812 -6.453125 6.9375 -6.953125 C 6.488281 -7.453125 5.90625 -7.703125 5.1875 -7.703125 L 3.828125 -7.703125 L 3.828125 -2.34375 Z M 5.328125 -2.34375 "/></g></g></g><g fill="#ff1616" fill-opacity="1"><g transform="translate(131.282087, 276.119103)"><g><path d="M 0.84375 0 L 0.84375 -10.0625 L 4.046875 -10.0625 L 6.734375 -4.46875 L 9.421875 -10.0625 L 12.625 -10.0625 L 12.625 0 L 10 0 L 10 -5.96875 L 7.703125 -0.984375 L 5.765625 -0.984375 L 3.46875 -5.96875 L 3.46875 0 Z M 0.84375 0 "/></g></g></g><g fill="#ff1616" fill-opacity="1"><g transform="translate(148.253329, 276.119103)"><g><path d="M 0.84375 0 L 0.84375 -10.0625 L 3.828125 -10.0625 L 3.828125 0 Z M 0.84375 0 "/></g></g></g><g fill="#ff1616" fill-opacity="1"><g transform="translate(156.438989, 276.119103)"><g><path d="M 7.65625 -4.453125 L 7.65625 -10.0625 L 10.390625 -10.0625 L 10.390625 0 L 7.84375 0 L 3.578125 -5.59375 L 3.578125 0 L 0.84375 0 L 0.84375 -10.0625 L 3.40625 -10.0625 Z M 7.65625 -4.453125 "/></g></g></g><g fill="#ff1616" fill-opacity="1"><g transform="translate(171.174424, 276.119103)"><g><path d="M 0.84375 0 L 0.84375 -10.0625 L 3.828125 -10.0625 L 3.828125 0 Z M 0.84375 0 "/></g></g></g><g fill="#ff1616" fill-opacity="1"><g transform="translate(179.360084, 276.119103)"><g><path d="M 8.078125 -6.8125 C 7.535156 -7.125 6.941406 -7.390625 6.296875 -7.609375 C 5.660156 -7.835938 5.140625 -7.953125 4.734375 -7.953125 C 4.472656 -7.953125 4.269531 -7.898438 4.125 -7.796875 C 3.976562 -7.691406 3.90625 -7.546875 3.90625 -7.359375 C 3.90625 -7.085938 4.046875 -6.878906 4.328125 -6.734375 C 4.617188 -6.585938 5.070312 -6.425781 5.6875 -6.25 C 6.394531 -6.050781 6.976562 -5.847656 7.4375 -5.640625 C 7.90625 -5.429688 8.304688 -5.117188 8.640625 -4.703125 C 8.984375 -4.285156 9.15625 -3.734375 9.15625 -3.046875 C 9.15625 -2.347656 8.96875 -1.753906 8.59375 -1.265625 C 8.226562 -0.785156 7.734375 -0.425781 7.109375 -0.1875 C 6.484375 0.0507812 5.78125 0.171875 5 0.171875 C 4.144531 0.171875 3.285156 0.0234375 2.421875 -0.265625 C 1.554688 -0.554688 0.804688 -0.957031 0.171875 -1.46875 L 1.296875 -3.734375 C 1.796875 -3.285156 2.410156 -2.910156 3.140625 -2.609375 C 3.878906 -2.316406 4.507812 -2.171875 5.03125 -2.171875 C 5.351562 -2.171875 5.601562 -2.226562 5.78125 -2.34375 C 5.96875 -2.46875 6.0625 -2.648438 6.0625 -2.890625 C 6.0625 -3.160156 5.910156 -3.367188 5.609375 -3.515625 C 5.316406 -3.671875 4.863281 -3.828125 4.25 -3.984375 C 3.550781 -4.171875 2.972656 -4.359375 2.515625 -4.546875 C 2.054688 -4.742188 1.65625 -5.046875 1.3125 -5.453125 C 0.976562 -5.867188 0.8125 -6.410156 0.8125 -7.078125 C 0.8125 -7.734375 0.984375 -8.300781 1.328125 -8.78125 C 1.671875 -9.269531 2.15625 -9.640625 2.78125 -9.890625 C 3.414062 -10.148438 4.148438 -10.28125 4.984375 -10.28125 C 5.734375 -10.28125 6.476562 -10.171875 7.21875 -9.953125 C 7.96875 -9.742188 8.625 -9.460938 9.1875 -9.109375 Z M 8.078125 -6.8125 "/></g></g></g><g fill="#ff1616" fill-opacity="1"><g transform="translate(192.261008, 276.119103)"><g><path d="M 0.09375 -7.671875 L 0.09375 -10.0625 L 8.921875 -10.0625 L 8.921875 -7.671875 L 6 -7.671875 L 6 0 L 3 0 L 3 -7.671875 Z M 0.09375 -7.671875 "/></g></g></g><g fill="#ff1616" fill-opacity="1"><g transform="translate(204.774967, 276.119103)"><g><path d="M 10.125 0 L 6.734375 0 L 5.40625 -2.71875 L 3.828125 -2.71875 L 3.828125 0 L 0.84375 0 L 0.84375 -10.0625 L 5.53125 -10.0625 C 6.882812 -10.0625 7.929688 -9.75 8.671875 -9.125 C 9.410156 -8.5 9.78125 -7.617188 9.78125 -6.484375 C 9.78125 -5.742188 9.632812 -5.101562 9.34375 -4.5625 C 9.050781 -4.03125 8.632812 -3.601562 8.09375 -3.28125 Z M 3.828125 -7.765625 L 3.828125 -5 L 5.53125 -5 C 5.976562 -5 6.320312 -5.117188 6.5625 -5.359375 C 6.8125 -5.597656 6.9375 -5.941406 6.9375 -6.390625 C 6.9375 -6.835938 6.8125 -7.175781 6.5625 -7.40625 C 6.320312 -7.644531 5.976562 -7.765625 5.53125 -7.765625 Z M 3.828125 -7.765625 "/></g></g></g><g fill="#ff1616" fill-opacity="1"><g transform="translate(218.679149, 276.119103)"><g><path d="M 11.390625 0 L 8.203125 0 L 7.609375 -1.609375 L 3.5625 -1.609375 L 2.953125 0 L -0.109375 0 L 4.171875 -10.0625 L 7.25 -10.0625 Z M 5.625 -7.078125 L 4.390625 -3.78125 L 6.828125 -3.78125 Z M 5.625 -7.078125 "/></g></g></g><g fill="#ff1616" fill-opacity="1"><g transform="translate(233.457579, 276.119103)"><g><path d="M 0.09375 -7.671875 L 0.09375 -10.0625 L 8.921875 -10.0625 L 8.921875 -7.671875 L 6 -7.671875 L 6 0 L 3 0 L 3 -7.671875 Z M 0.09375 -7.671875 "/></g></g></g><g fill="#ff1616" fill-opacity="1"><g transform="translate(245.971544, 276.119103)"><g><path d="M 5.75 -10.234375 C 6.78125 -10.234375 7.710938 -10.007812 8.546875 -9.5625 C 9.390625 -9.113281 10.046875 -8.492188 10.515625 -7.703125 C 10.992188 -6.921875 11.234375 -6.035156 11.234375 -5.046875 C 11.234375 -4.054688 10.992188 -3.160156 10.515625 -2.359375 C 10.046875 -1.554688 9.390625 -0.925781 8.546875 -0.46875 C 7.710938 -0.0195312 6.78125 0.203125 5.75 0.203125 C 4.707031 0.203125 3.769531 -0.0195312 2.9375 -0.46875 C 2.101562 -0.925781 1.445312 -1.554688 0.96875 -2.359375 C 0.5 -3.160156 0.265625 -4.054688 0.265625 -5.046875 C 0.265625 -6.035156 0.5 -6.921875 0.96875 -7.703125 C 1.445312 -8.492188 2.101562 -9.113281 2.9375 -9.5625 C 3.769531 -10.007812 4.707031 -10.234375 5.75 -10.234375 Z M 5.796875 -7.765625 C 5.359375 -7.765625 4.945312 -7.644531 4.5625 -7.40625 C 4.1875 -7.164062 3.882812 -6.835938 3.65625 -6.421875 C 3.4375 -6.003906 3.328125 -5.539062 3.328125 -5.03125 C 3.328125 -4.53125 3.4375 -4.066406 3.65625 -3.640625 C 3.882812 -3.222656 4.1875 -2.890625 4.5625 -2.640625 C 4.945312 -2.398438 5.359375 -2.28125 5.796875 -2.28125 C 6.222656 -2.28125 6.617188 -2.398438 6.984375 -2.640625 C 7.359375 -2.890625 7.648438 -3.222656 7.859375 -3.640625 C 8.066406 -4.054688 8.171875 -4.519531 8.171875 -5.03125 C 8.171875 -5.539062 8.066406 -6.003906 7.859375 -6.421875 C 7.648438 -6.835938 7.363281 -7.164062 7 -7.40625 C 6.632812 -7.644531 6.234375 -7.765625 5.796875 -7.765625 Z M 5.796875 -7.765625 "/></g></g></g><g fill="#ff1616" fill-opacity="1"><g transform="translate(260.979291, 276.119103)"><g><path d="M 10.125 0 L 6.734375 0 L 5.40625 -2.71875 L 3.828125 -2.71875 L 3.828125 0 L 0.84375 0 L 0.84375 -10.0625 L 5.53125 -10.0625 C 6.882812 -10.0625 7.929688 -9.75 8.671875 -9.125 C 9.410156 -8.5 9.78125 -7.617188 9.78125 -6.484375 C 9.78125 -5.742188 9.632812 -5.101562 9.34375 -4.5625 C 9.050781 -4.03125 8.632812 -3.601562 8.09375 -3.28125 Z M 3.828125 -7.765625 L 3.828125 -5 L 5.53125 -5 C 5.976562 -5 6.320312 -5.117188 6.5625 -5.359375 C 6.8125 -5.597656 6.9375 -5.941406 6.9375 -6.390625 C 6.9375 -6.835938 6.8125 -7.175781 6.5625 -7.40625 C 6.320312 -7.644531 5.976562 -7.765625 5.53125 -7.765625 Z M 3.828125 -7.765625 "/></g></g></g></svg>