<svg xmlns="http://www.w3.org/2000/svg" xmlns:xlink="http://www.w3.org/1999/xlink" width="500" zoomAndPan="magnify" viewBox="0 0 375 374.999991" height="500" preserveAspectRatio="xMidYMid meet" version="1.0"><defs><g/><clipPath id="2cb17fd094"><path d="M 123.328125 90 L 153 90 L 153 137 L 123.328125 137 Z M 123.328125 90 " clip-rule="nonzero"/></clipPath><clipPath id="8f3f43da57"><path d="M 219 130 L 251.578125 130 L 251.578125 180 L 219 180 Z M 219 130 " clip-rule="nonzero"/></clipPath><clipPath id="a6e974b2df"><path d="M 173 86 L 251.578125 86 L 251.578125 155 L 173 155 Z M 173 86 " clip-rule="nonzero"/></clipPath><clipPath id="836f5a55a3"><path d="M 123.328125 132 L 142 132 L 142 162 L 123.328125 162 Z M 123.328125 132 " clip-rule="nonzero"/></clipPath><clipPath id="84f71742af"><path d="M 139 65.84375 L 180 65.84375 L 180 133 L 139 133 Z M 139 65.84375 " clip-rule="nonzero"/></clipPath></defs><g clip-path="url(#2cb17fd094)"><path fill="#ffbc2e" d="M 149.6875 136.644531 C 150.085938 136.90625 150.617188 136.859375 150.960938 136.527344 L 152.683594 134.867188 C 152.632812 134.800781 152.574219 134.738281 152.523438 134.671875 C 147.445312 127.589844 136.078125 109.890625 134.089844 91.238281 C 134.007812 90.457031 133.140625 90.066406 132.488281 90.503906 C 126.96875 94.222656 123.335938 100.511719 123.335938 107.660156 L 123.335938 118.675781 C 123.335938 119.015625 123.507812 119.335938 123.792969 119.523438 L 149.6875 136.644531 " fill-opacity="1" fill-rule="nonzero"/></g><g clip-path="url(#8f3f43da57)"><path fill="#5db3ff" d="M 249.859375 131.265625 L 220.25 159.8125 C 219.78125 160.265625 219.851562 161.035156 220.394531 161.394531 L 248.09375 179.746094 C 248.601562 180.082031 249.3125 179.910156 249.574219 179.359375 C 250.863281 176.664062 251.585938 173.648438 251.585938 170.460938 L 251.585938 132 C 251.585938 131.101562 250.507812 130.640625 249.859375 131.265625 " fill-opacity="1" fill-rule="nonzero"/></g><g clip-path="url(#a6e974b2df)"><path fill="#acde50" d="M 230.871094 86.972656 L 217.976562 86.972656 C 217.714844 86.972656 217.460938 87.074219 217.269531 87.257812 L 173.875 129.089844 C 173.40625 129.542969 173.476562 130.3125 174.019531 130.671875 L 209.640625 154.273438 C 210.042969 154.539062 210.570312 154.488281 210.914062 154.15625 L 230.867188 134.917969 C 231.335938 134.464844 231.265625 133.695312 230.722656 133.335938 L 213.050781 121.65625 C 212.507812 121.296875 212.4375 120.527344 212.90625 120.074219 L 219.183594 114.027344 C 219.527344 113.695312 220.054688 113.644531 220.453125 113.910156 L 238.878906 126.089844 C 239.277344 126.351562 239.804688 126.304688 240.148438 125.972656 L 251.277344 115.246094 C 251.476562 115.054688 251.585938 114.789062 251.585938 114.511719 L 251.585938 107.660156 C 251.585938 96.234375 242.3125 86.972656 230.871094 86.972656 " fill-opacity="1" fill-rule="nonzero"/></g><path fill="#5db3ff" d="M 184.082031 104.59375 L 200.546875 88.722656 C 201.207031 88.085938 200.757812 86.972656 199.839844 86.972656 L 186.261719 86.972656 C 185.71875 86.972656 185.285156 87.394531 185.257812 87.9375 C 185.023438 93.257812 183.949219 98.535156 182.410156 103.566406 C 182.101562 104.574219 183.324219 105.328125 184.082031 104.59375 " fill-opacity="1" fill-rule="nonzero"/><g clip-path="url(#836f5a55a3)"><path fill="#acde50" d="M 141.679688 145.472656 C 142.148438 145.023438 142.078125 144.253906 141.535156 143.894531 L 124.917969 132.910156 C 124.242188 132.460938 123.335938 132.949219 123.335938 133.757812 L 123.335938 160.757812 C 123.335938 161.65625 124.417969 162.117188 125.066406 161.492188 L 141.679688 145.472656 " fill-opacity="1" fill-rule="nonzero"/></g><path fill="#ffbc2e" d="M 198.359375 159.449219 C 197.960938 159.183594 197.429688 159.234375 197.085938 159.566406 L 166.140625 189.398438 C 165.480469 190.035156 165.933594 191.148438 166.851562 191.148438 L 194.539062 191.148438 C 195.214844 191.148438 195.855469 191.445312 196.292969 191.957031 L 212.640625 211.113281 C 214.03125 212.742188 216.699219 211.757812 216.699219 209.621094 L 216.699219 193.453125 C 216.699219 192.179688 217.730469 191.148438 219.003906 191.148438 L 230.871094 191.148438 C 234.1875 191.148438 237.316406 190.355469 240.097656 188.964844 C 240.808594 188.609375 240.890625 187.628906 240.226562 187.1875 L 198.359375 159.449219 " fill-opacity="1" fill-rule="nonzero"/><path fill="#5db3ff" d="M 187.609375 152.324219 L 165.867188 137.921875 C 165.46875 137.65625 164.9375 137.707031 164.59375 138.039062 L 124.828125 176.375 C 124.539062 176.65625 124.429688 177.085938 124.566406 177.46875 C 127.441406 185.445312 135.078125 191.148438 144.054688 191.148438 L 148.710938 191.148438 C 148.976562 191.148438 149.230469 191.046875 149.421875 190.863281 L 187.753906 153.90625 C 188.222656 153.453125 188.152344 152.6875 187.609375 152.324219 " fill-opacity="1" fill-rule="nonzero"/><g clip-path="url(#84f71742af)"><path fill="#fb4d48" d="M 159.550781 93.449219 C 155.296875 93.449219 151.847656 90.003906 151.847656 85.757812 C 151.847656 81.507812 155.296875 78.066406 159.550781 78.066406 C 163.804688 78.066406 167.253906 81.507812 167.253906 85.757812 C 167.253906 90.003906 163.804688 93.449219 159.550781 93.449219 Z M 139.757812 86.867188 C 140.242188 105.417969 152.347656 124.167969 157.386719 131.195312 C 158.449219 132.675781 160.644531 132.691406 161.707031 131.207031 C 166.84375 124.050781 179.359375 104.660156 179.359375 85.726562 C 179.359375 74.804688 170.496094 65.949219 159.554688 65.949219 C 147.992188 65.945312 139.472656 75.84375 139.757812 86.867188 " fill-opacity="1" fill-rule="nonzero"/></g><g fill="#000000" fill-opacity="1"><g transform="translate(85.540506, 241.474847)"><g><path d="M 11.628906 0.480469 C 13.605469 0.480469 15.867188 0.0546875 17.363281 -2.003906 L 17.363281 0 L 21.964844 0 L 21.964844 -12.027344 L 12.421875 -12.027344 L 12.421875 -7.960938 L 16.910156 -7.960938 C 16.769531 -5.195312 15.046875 -4.035156 12.195312 -4.035156 C 8.242188 -4.035156 6.210938 -6.691406 6.210938 -10.785156 C 6.210938 -14.847656 8.242188 -17.472656 11.628906 -17.472656 C 14.285156 -17.472656 15.835938 -16.402344 16.34375 -14.257812 L 21.878906 -14.257812 C 21.171875 -18.914062 17.726562 -21.992188 11.628906 -21.992188 C 4.261719 -21.992188 0.875 -16.796875 0.875 -10.785156 C 0.875 -4.769531 4.261719 0.480469 11.628906 0.480469 Z M 11.628906 0.480469 "/></g></g></g><g fill="#000000" fill-opacity="1"><g transform="translate(110.289057, 241.474847)"><g><path d="M 15.582031 -9.230469 C 17.472656 -10.304688 18.660156 -12.308594 18.660156 -15.046875 C 18.660156 -19.734375 15.808594 -21.539062 11.855469 -21.539062 L 1.695312 -21.539062 L 1.695312 0 L 6.746094 0 L 6.746094 -8.300781 L 10.839844 -8.300781 L 13.972656 0 L 19.308594 0 Z M 11.152344 -17.023438 C 12.789062 -17.023438 13.664062 -16.289062 13.664062 -14.878906 C 13.664062 -13.410156 12.789062 -12.675781 11.152344 -12.675781 L 6.746094 -12.675781 L 6.746094 -17.023438 Z M 11.152344 -17.023438 "/></g></g></g><g fill="#000000" fill-opacity="1"><g transform="translate(131.679568, 241.474847)"><g><path d="M 5.421875 0 L 6.578125 -3.867188 L 13.746094 -3.867188 L 14.90625 0 L 20.269531 0 L 12.902344 -21.539062 L 7.425781 -21.539062 L 0.0546875 0 Z M 10.164062 -15.921875 L 12.421875 -8.242188 L 7.90625 -8.242188 Z M 10.164062 -15.921875 "/></g></g></g><g fill="#000000" fill-opacity="1"><g transform="translate(153.408709, 241.474847)"><g><path d="M 6.746094 0 L 6.746094 -8.300781 L 11.855469 -8.300781 C 15.808594 -8.300781 18.660156 -10.785156 18.660156 -15.046875 C 18.660156 -19.734375 15.808594 -21.539062 11.855469 -21.539062 L 1.695312 -21.539062 L 1.695312 0 Z M 6.746094 -17.023438 L 11.152344 -17.023438 C 12.789062 -17.023438 13.664062 -16.289062 13.664062 -14.878906 C 13.664062 -13.410156 12.789062 -12.675781 11.152344 -12.675781 L 6.746094 -12.675781 Z M 6.746094 -17.023438 "/></g></g></g><g fill="#000000" fill-opacity="1"><g transform="translate(174.093749, 241.474847)"><g><path d="M 6.746094 0 L 6.746094 -8.496094 L 14.933594 -8.496094 L 14.933594 0 L 19.988281 0 L 19.988281 -21.539062 L 14.933594 -21.539062 L 14.933594 -13.015625 L 6.746094 -13.015625 L 6.746094 -21.539062 L 1.695312 -21.539062 L 1.695312 0 Z M 6.746094 0 "/></g></g></g><g fill="#000000" fill-opacity="1"><g transform="translate(126.638159, 269.224845)"><g><path d="M 6.746094 0 L 6.746094 -17.390625 L 10.925781 0 L 15.835938 0 L 20.015625 -17.503906 L 20.015625 0 L 25.066406 0 L 25.066406 -21.539062 L 16.910156 -21.539062 L 13.382812 -6.042969 L 9.824219 -21.539062 L 1.695312 -21.539062 L 1.695312 0 Z M 6.746094 0 "/></g></g></g><g fill="#000000" fill-opacity="1"><g transform="translate(154.829402, 269.224845)"><g><path d="M 5.421875 0 L 6.578125 -3.867188 L 13.746094 -3.867188 L 14.90625 0 L 20.269531 0 L 12.902344 -21.539062 L 7.425781 -21.539062 L 0.0546875 0 Z M 10.164062 -15.921875 L 12.421875 -8.242188 L 7.90625 -8.242188 Z M 10.164062 -15.921875 "/></g></g></g><g fill="#000000" fill-opacity="1"><g transform="translate(176.558544, 269.224845)"><g><path d="M 6.746094 0 L 6.746094 -8.300781 L 11.855469 -8.300781 C 15.808594 -8.300781 18.660156 -10.785156 18.660156 -15.046875 C 18.660156 -19.734375 15.808594 -21.539062 11.855469 -21.539062 L 1.695312 -21.539062 L 1.695312 0 Z M 6.746094 -17.023438 L 11.152344 -17.023438 C 12.789062 -17.023438 13.664062 -16.289062 13.664062 -14.878906 C 13.664062 -13.410156 12.789062 -12.675781 11.152344 -12.675781 L 6.746094 -12.675781 Z M 6.746094 -17.023438 "/></g></g></g><g fill="#000000" fill-opacity="1"><g transform="translate(202.969839, 240.724832)"><g><path d="M 1.671875 0 L 3.152344 -3.960938 L 10.078125 -3.960938 L 11.558594 0 L 12.921875 0 L 7.382812 -14.671875 L 5.847656 -14.671875 L 0.308594 0 Z M 6.613281 -13.308594 L 9.652344 -5.152344 L 3.578125 -5.152344 Z M 6.613281 -13.308594 "/></g></g></g><g fill="#000000" fill-opacity="1"><g transform="translate(217.538587, 240.724832)"><g><path d="M 2.847656 0 L 2.847656 -13.402344 L 9.960938 0 L 12 0 L 12 -14.671875 L 10.691406 -14.671875 L 10.691406 -1.210938 L 3.558594 -14.671875 L 1.519531 -14.671875 L 1.519531 0 Z M 2.847656 0 "/></g></g></g><g fill="#000000" fill-opacity="1"><g transform="translate(232.414839, 240.724832)"><g><path d="M 1.671875 0 L 3.152344 -3.960938 L 10.078125 -3.960938 L 11.558594 0 L 12.921875 0 L 7.382812 -14.671875 L 5.847656 -14.671875 L 0.308594 0 Z M 6.613281 -13.308594 L 9.652344 -5.152344 L 3.578125 -5.152344 Z M 6.613281 -13.308594 "/></g></g></g><g fill="#000000" fill-opacity="1"><g transform="translate(246.983587, 240.724832)"><g><path d="M 9.578125 0 L 9.578125 -1.191406 L 2.847656 -1.191406 L 2.847656 -14.671875 L 1.519531 -14.671875 L 1.519531 0 Z M 9.578125 0 "/></g></g></g><g fill="#000000" fill-opacity="1"><g transform="translate(258.189054, 240.724832)"><g><path d="M 2.847656 0 L 2.847656 -14.671875 L 1.519531 -14.671875 L 1.519531 0 Z M 2.847656 0 "/></g></g></g><g fill="#000000" fill-opacity="1"><g transform="translate(202.969839, 261.724831)"><g><path d="M 6.519531 0.191406 C 9.847656 0.191406 11.613281 -1.539062 11.613281 -4.097656 C 11.613281 -7.210938 9.019531 -7.789062 6.632812 -8.308594 C 4.613281 -8.75 2.730469 -9.171875 2.730469 -11.097656 C 2.730469 -12.691406 4.152344 -13.671875 6.152344 -13.671875 C 8.039062 -13.671875 9.460938 -12.902344 9.863281 -10.808594 L 11.132812 -10.808594 C 10.671875 -13.671875 8.730469 -14.863281 6.171875 -14.863281 C 3.441406 -14.863281 1.402344 -13.363281 1.402344 -11 C 1.402344 -8.171875 3.808594 -7.652344 6.113281 -7.152344 C 8.25 -6.691406 10.289062 -6.25 10.289062 -4.039062 C 10.289062 -2.132812 8.941406 -1 6.613281 -1 C 4.652344 -1 2.597656 -1.75 2.171875 -4.152344 L 0.828125 -4.152344 C 1.308594 -1.058594 3.75 0.191406 6.519531 0.191406 Z M 6.519531 0.191406 "/></g></g></g><g fill="#000000" fill-opacity="1"><g transform="translate(216.865938, 261.724831)"><g><path d="M 2.847656 0 L 2.847656 -14.671875 L 1.519531 -14.671875 L 1.519531 0 Z M 2.847656 0 "/></g></g></g><g fill="#000000" fill-opacity="1"><g transform="translate(222.594069, 261.724831)"><g><path d="M 6.519531 0.191406 C 9.847656 0.191406 11.613281 -1.539062 11.613281 -4.097656 C 11.613281 -7.210938 9.019531 -7.789062 6.632812 -8.308594 C 4.613281 -8.75 2.730469 -9.171875 2.730469 -11.097656 C 2.730469 -12.691406 4.152344 -13.671875 6.152344 -13.671875 C 8.039062 -13.671875 9.460938 -12.902344 9.863281 -10.808594 L 11.132812 -10.808594 C 10.671875 -13.671875 8.730469 -14.863281 6.171875 -14.863281 C 3.441406 -14.863281 1.402344 -13.363281 1.402344 -11 C 1.402344 -8.171875 3.808594 -7.652344 6.113281 -7.152344 C 8.25 -6.691406 10.289062 -6.25 10.289062 -4.039062 C 10.289062 -2.132812 8.941406 -1 6.613281 -1 C 4.652344 -1 2.597656 -1.75 2.171875 -4.152344 L 0.828125 -4.152344 C 1.308594 -1.058594 3.75 0.191406 6.519531 0.191406 Z M 6.519531 0.191406 "/></g></g></g></svg>