<svg xmlns="http://www.w3.org/2000/svg" xmlns:xlink="http://www.w3.org/1999/xlink" width="500" zoomAndPan="magnify" viewBox="0 0 375 374.999991" height="500" preserveAspectRatio="xMidYMid meet" version="1.0"><path fill="#d9d9d9" d="M 13.105469 110.660156 C 13.105469 103.628906 13.105469 100.113281 14.519531 97.449219 C 15.660156 95.296875 17.421875 93.539062 19.574219 92.398438 C 22.246094 90.988281 25.765625 90.988281 32.804688 90.988281 L 253.320312 90.988281 C 260.359375 90.988281 263.878906 90.988281 266.550781 92.398438 C 268.703125 93.539062 270.464844 95.296875 271.605469 97.449219 C 273.019531 100.113281 273.019531 103.628906 273.019531 110.660156 L 273.019531 200.332031 C 273.019531 207.359375 273.019531 210.875 271.605469 213.539062 C 270.464844 215.691406 268.703125 217.449219 266.550781 218.589844 C 263.878906 220 260.359375 220 253.320312 220 L 32.804688 220 C 25.765625 220 22.246094 220 19.574219 218.589844 C 17.421875 217.449219 15.660156 215.691406 14.519531 213.539062 C 13.105469 210.875 13.105469 207.359375 13.105469 200.332031 Z M 13.105469 110.660156 " fill-opacity="1" fill-rule="nonzero"/><path fill="#d2ffbc" d="M 13.105469 110.660156 C 13.105469 103.628906 13.105469 100.113281 14.519531 97.449219 C 15.660156 95.296875 17.421875 93.539062 19.574219 92.398438 C 22.246094 90.988281 25.765625 90.988281 32.804688 90.988281 L 253.320312 90.988281 C 260.359375 90.988281 263.878906 90.988281 266.550781 92.398438 C 268.703125 93.539062 270.464844 95.296875 271.605469 97.449219 C 273.019531 100.113281 273.019531 103.628906 273.019531 110.660156 L 273.019531 200.332031 C 273.019531 207.359375 273.019531 210.875 271.605469 213.539062 C 270.464844 215.691406 268.703125 217.449219 266.550781 218.589844 C 263.878906 220 260.359375 220 253.320312 220 L 32.804688 220 C 25.765625 220 22.246094 220 19.574219 218.589844 C 17.421875 217.449219 15.660156 215.691406 14.519531 213.539062 C 13.105469 210.875 13.105469 207.359375 13.105469 200.332031 Z M 13.105469 110.660156 " fill-opacity="1" fill-rule="nonzero"/><path fill="#00822d" d="M 102.78125 175.921875 C 102.78125 168.894531 102.78125 165.378906 104.195312 162.714844 C 105.335938 160.5625 107.097656 158.804688 109.253906 157.664062 C 111.921875 156.253906 115.441406 156.253906 122.480469 156.253906 L 343 156.253906 C 350.039062 156.253906 353.558594 156.253906 356.226562 157.664062 C 358.382812 158.804688 360.144531 160.5625 361.285156 162.714844 C 362.699219 165.378906 362.699219 168.894531 362.699219 175.921875 L 362.699219 265.59375 C 362.699219 272.625 362.699219 276.140625 361.285156 278.804688 C 360.144531 280.957031 358.382812 282.714844 356.226562 283.855469 C 353.558594 285.265625 350.039062 285.265625 343 285.265625 L 122.480469 285.265625 C 115.441406 285.265625 111.921875 285.265625 109.253906 283.855469 C 107.097656 282.714844 105.335938 280.957031 104.195312 278.804688 C 102.78125 276.140625 102.78125 272.625 102.78125 265.59375 Z M 102.78125 175.921875 " fill-opacity="1" fill-rule="nonzero"/><path fill="#004518" d="M 102.78125 175.921875 C 102.78125 168.894531 102.78125 165.378906 104.195312 162.714844 C 105.335938 160.5625 107.097656 158.804688 109.253906 157.664062 C 111.921875 156.253906 115.441406 156.253906 122.480469 156.253906 L 273.019531 156.253906 L 273.019531 200.332031 C 273.019531 207.359375 273.019531 210.875 271.605469 213.539062 C 270.464844 215.691406 268.703125 217.449219 266.550781 218.589844 C 263.878906 220 260.359375 220 253.320312 220 L 102.78125 220 Z M 102.78125 175.921875 " fill-opacity="1" fill-rule="nonzero"/></svg>