<svg width="39" height="39" viewBox="0 0 39 39" fill="none" xmlns="http://www.w3.org/2000/svg">
<circle cx="28.5" cy="30.5" r="7.5" fill="#4B4A4A"/>
<path d="M16.8423 6.54545C16.706 5.39394 16.1529 4.5 15.1832 3.86364C14.2135 3.22727 13.0241 2.90909 11.6151 2.90909C10.5848 2.90909 9.68324 3.07576 8.91051 3.40909C8.14536 3.74242 7.54688 4.20076 7.11506 4.78409C6.69081 5.36742 6.47869 6.0303 6.47869 6.77273C6.47869 7.39394 6.62642 7.92803 6.92188 8.375C7.22491 8.81439 7.61127 9.18182 8.08097 9.47727C8.55066 9.76515 9.04309 10.0038 9.55824 10.1932C10.0734 10.375 10.5469 10.5227 10.9787 10.6364L13.3423 11.2727C13.9484 11.4318 14.6226 11.6515 15.3651 11.9318C16.1151 12.2121 16.831 12.5947 17.5128 13.0795C18.2022 13.5568 18.7704 14.1705 19.2173 14.9205C19.6643 15.6705 19.8878 16.5909 19.8878 17.6818C19.8878 18.9394 19.5582 20.0758 18.8991 21.0909C18.2476 22.1061 17.2931 22.9129 16.0355 23.5114C14.7855 24.1098 13.2666 24.4091 11.4787 24.4091C9.81203 24.4091 8.36884 24.1402 7.14915 23.6023C5.93703 23.0644 4.98248 22.3144 4.28551 21.3523C3.59612 20.3902 3.20597 19.2727 3.11506 18H6.02415C6.09991 18.8788 6.39536 19.6061 6.91051 20.1818C7.43324 20.75 8.09233 21.1742 8.88778 21.4545C9.69081 21.7273 10.5545 21.8636 11.4787 21.8636C12.5545 21.8636 13.5204 21.6894 14.3764 21.3409C15.2325 20.9848 15.9105 20.4924 16.4105 19.8636C16.9105 19.2273 17.1605 18.4848 17.1605 17.6364C17.1605 16.8636 16.9446 16.2348 16.5128 15.75C16.081 15.2652 15.5128 14.8712 14.8082 14.5682C14.1037 14.2652 13.3423 14 12.5241 13.7727L9.66051 12.9545C7.84233 12.4318 6.40294 11.6856 5.34233 10.7159C4.28172 9.74621 3.75142 8.47727 3.75142 6.90909C3.75142 5.60606 4.10369 4.4697 4.80824 3.5C5.52036 2.52273 6.47491 1.76515 7.67188 1.22727C8.87642 0.681817 10.2211 0.40909 11.706 0.40909C13.206 0.40909 14.5393 0.678029 15.706 1.21591C16.8726 1.74621 17.7969 2.47348 18.4787 3.39773C19.1681 4.32197 19.5317 5.37121 19.5696 6.54545H16.8423Z" fill="black"/>
<path d="M19.9602 24H17.0057L25.5511 0.727272H28.4602L37.0057 24H34.0511L27.0966 4.40909H26.9148L19.9602 24ZM21.0511 14.9091H32.9602V17.4091H21.0511V14.9091Z" fill="black"/>
<path d="M3 22.4119L26.2727 22.4119L26.2727 30.5483C26.2727 32.1695 25.9924 33.5066 25.4318 34.5597C24.8788 35.6127 24.1326 36.3968 23.1932 36.9119C22.2614 37.4271 21.2273 37.6847 20.0909 37.6847C19.0909 37.6847 18.2652 37.5066 17.6136 37.1506C16.9621 36.8021 16.447 36.34 16.0682 35.7642C15.6894 35.196 15.4091 34.5786 15.2273 33.9119L15 33.9119C14.9545 34.6241 14.7045 35.34 14.25 36.0597C13.7955 36.7794 13.1439 37.3816 12.2955 37.8665C11.447 38.3513 10.4091 38.5938 9.18182 38.5938C8.01515 38.5938 6.96591 38.3286 6.03409 37.7983C5.10227 37.268 4.36364 36.4309 3.81818 35.2869C3.27273 34.143 3 32.6544 3 30.821L3 22.4119ZM5.5 25.2301L5.5 30.821C5.5 32.6619 5.85606 33.9688 6.56818 34.7415C7.28788 35.5218 8.15909 35.9119 9.18182 35.9119C9.9697 35.9119 10.697 35.7112 11.3636 35.3097C12.0379 34.9081 12.5758 34.3362 12.9773 33.5938C13.3864 32.8513 13.5909 31.9725 13.5909 30.9574L13.5909 25.2301L5.5 25.2301ZM16.0455 25.2301L16.0455 30.4574C16.0455 31.3059 16.2121 32.071 16.5455 32.7528C16.8788 33.4422 17.3485 33.9877 17.9545 34.3892C18.5606 34.7983 19.2727 35.0028 20.0909 35.0028C21.1136 35.0028 21.9811 34.6468 22.6932 33.9347C23.4129 33.2225 23.7727 32.0938 23.7727 30.5483L23.7727 25.2301L16.0455 25.2301Z" fill="black"/>
</svg>
