<svg xmlns="http://www.w3.org/2000/svg" xmlns:xlink="http://www.w3.org/1999/xlink" width="500" zoomAndPan="magnify" viewBox="0 0 375 374.999991" height="500" preserveAspectRatio="xMidYMid meet" version="1.0"><defs><g/><clipPath id="241379c7b5"><path d="M 89.488281 125 L 271 125 L 271 208.492188 L 89.488281 208.492188 Z M 89.488281 125 " clip-rule="nonzero"/></clipPath><clipPath id="6ef11e8e04"><path d="M 126 95.242188 L 318.988281 95.242188 L 318.988281 191 L 126 191 Z M 126 95.242188 " clip-rule="nonzero"/></clipPath></defs><g clip-path="url(#241379c7b5)"><path fill="#ff3131" d="M 172.421875 167.058594 C 172.421875 189.902344 153.890625 208.492188 131.109375 208.492188 C 108.328125 208.492188 89.792969 189.902344 89.792969 167.058594 C 89.792969 144.214844 108.328125 125.625 131.109375 125.625 C 134.703125 125.625 138.1875 126.089844 141.511719 126.953125 L 137.867188 136.246094 C 135.683594 135.765625 133.425781 135.503906 131.105469 135.503906 C 113.785156 135.503906 99.695312 149.660156 99.695312 167.054688 C 99.695312 184.449219 113.785156 198.605469 131.105469 198.605469 C 148.425781 198.605469 162.511719 184.449219 162.511719 167.054688 C 162.511719 155.507812 156.304688 145.398438 147.066406 139.898438 L 150.710938 130.597656 C 163.632812 137.617188 172.421875 151.324219 172.421875 167.058594 Z M 214.164062 139.613281 L 210.695312 130.253906 C 198.808594 136.429688 190.273438 148.226562 188.625 162.117188 L 198.613281 162.117188 C 200.121094 152.472656 206.011719 144.265625 214.164062 139.613281 Z M 229.625 125.628906 C 226.296875 125.628906 223.0625 126.035156 219.964844 126.785156 L 223.429688 136.128906 C 225.433594 135.726562 227.503906 135.511719 229.625 135.511719 C 246.945312 135.511719 261.035156 149.667969 261.035156 167.0625 C 261.035156 184.457031 246.945312 198.613281 229.625 198.613281 C 213.980469 198.613281 200.972656 187.0625 198.601562 172.003906 L 188.613281 172.003906 C 191.058594 192.527344 208.507812 208.492188 229.621094 208.492188 C 252.402344 208.492188 270.9375 189.910156 270.9375 167.058594 C 270.9375 144.207031 252.410156 125.628906 229.625 125.628906 Z M 229.625 125.628906 " fill-opacity="1" fill-rule="nonzero"/></g><path fill="#d11616" d="M 220.007812 167.058594 C 220.007812 169.789062 217.792969 172 215.054688 172 L 178.660156 172 C 175.921875 172 173.707031 169.789062 173.707031 167.058594 C 173.707031 164.328125 175.921875 162.117188 178.660156 162.117188 L 215.054688 162.117188 C 217.789062 162.117188 220.007812 164.328125 220.007812 167.058594 Z M 220.007812 167.058594 " fill-opacity="1" fill-rule="nonzero"/><path fill="#cd0000" d="M 231.34375 171.691406 C 230.773438 171.902344 230.195312 172.003906 229.625 172.003906 C 227.617188 172.003906 225.722656 170.769531 224.980469 168.777344 L 214.164062 139.617188 L 210.695312 130.257812 L 207.589844 121.886719 C 206.640625 119.328125 207.949219 116.484375 210.515625 115.539062 C 213.082031 114.589844 215.929688 115.898438 216.878906 118.457031 L 219.96875 126.789062 L 223.433594 136.136719 L 234.273438 165.347656 C 235.21875 167.902344 233.910156 170.746094 231.34375 171.691406 Z M 231.34375 171.691406 " fill-opacity="1" fill-rule="nonzero"/><path fill="#a21111" d="M 235.894531 106.089844 C 235.894531 108.820312 233.679688 111.03125 230.945312 111.03125 L 206.789062 111.03125 C 204.054688 111.03125 201.839844 108.820312 201.839844 106.089844 C 201.839844 103.359375 204.054688 101.152344 206.789062 101.152344 L 230.945312 101.152344 C 233.679688 101.144531 235.894531 103.359375 235.894531 106.089844 Z M 235.894531 106.089844 " fill-opacity="1" fill-rule="nonzero"/><g clip-path="url(#6ef11e8e04)"><path fill="#ff914d" d="M 197.785156 120.167969 C 197.785156 122.898438 195.570312 125.109375 192.835938 125.109375 L 152.875 125.109375 L 150.722656 130.597656 L 147.074219 139.898438 L 135.722656 168.855469 C 134.960938 170.804688 133.089844 172 131.109375 172 C 130.511719 172 129.898438 171.886719 129.308594 171.660156 C 126.761719 170.664062 125.503906 167.796875 126.5 165.257812 L 137.871094 136.25 L 141.515625 126.960938 L 153.949219 95.242188 L 174.695312 95.242188 C 177.433594 95.242188 179.648438 97.453125 179.648438 100.183594 C 179.648438 102.914062 177.433594 105.125 174.695312 105.125 L 160.710938 105.125 L 156.75 115.222656 L 192.835938 115.222656 C 195.570312 115.226562 197.785156 117.4375 197.785156 120.167969 Z M 304.472656 132.546875 C 304.472656 129.816406 302.257812 127.605469 299.519531 127.605469 L 270.09375 127.605469 C 267.359375 127.605469 265.144531 129.816406 265.144531 132.546875 C 265.144531 135.277344 267.359375 137.484375 270.09375 137.484375 L 299.519531 137.484375 C 302.25 137.484375 304.472656 135.277344 304.472656 132.546875 Z M 313.730469 144.578125 L 280.339844 144.578125 C 277.605469 144.578125 275.390625 146.789062 275.390625 149.519531 C 275.390625 152.246094 277.605469 154.457031 280.339844 154.457031 L 313.730469 154.457031 C 316.464844 154.457031 318.679688 152.246094 318.679688 149.519531 C 318.679688 146.789062 316.464844 144.578125 313.730469 144.578125 Z M 303.476562 163.335938 L 282.320312 163.335938 C 279.585938 163.335938 277.371094 165.546875 277.371094 168.277344 C 277.371094 171.007812 279.585938 173.21875 282.320312 173.21875 L 303.476562 173.21875 C 306.214844 173.21875 308.429688 171.007812 308.429688 168.277344 C 308.429688 165.546875 306.214844 163.335938 303.476562 163.335938 Z M 288.445312 180.847656 L 277.195312 180.847656 C 274.460938 180.847656 272.246094 183.058594 272.246094 185.789062 C 272.246094 188.519531 274.460938 190.730469 277.195312 190.730469 L 288.445312 190.730469 C 291.183594 190.730469 293.398438 188.519531 293.398438 185.789062 C 293.398438 183.058594 291.183594 180.847656 288.445312 180.847656 Z M 288.445312 180.847656 " fill-opacity="1" fill-rule="nonzero"/></g><g fill="#a80000" fill-opacity="1"><g transform="translate(61.576125, 264.990628)"><g><path d="M 14.929688 0.0976562 L 20.710938 0.0976562 L 35.046875 -34.601562 L 28.867188 -34.601562 L 17.796875 -6.625 L 6.773438 -34.601562 L 0.542969 -34.601562 Z M 14.929688 0.0976562 "/></g></g></g><g fill="#a80000" fill-opacity="1"><g transform="translate(97.214948, 264.990628)"><g><path d="M 4.351562 0 L 29.90625 0 L 29.90625 -5.4375 L 9.886719 -5.4375 L 9.886719 -14.730469 L 28.96875 -14.730469 L 28.96875 -19.871094 L 9.886719 -19.871094 L 9.886719 -29.214844 L 29.757812 -29.214844 L 29.757812 -34.601562 L 4.351562 -34.601562 Z M 4.351562 0 "/></g></g></g><g fill="#a80000" fill-opacity="1"><g transform="translate(129.887988, 264.990628)"><g><path d="M 4.351562 0 L 28.128906 0 L 28.128906 -5.140625 L 9.886719 -5.140625 L 9.886719 -34.601562 L 4.351562 -34.601562 Z M 4.351562 0 "/></g></g></g><g fill="#a80000" fill-opacity="1"><g transform="translate(158.903233, 264.990628)"><g><path d="M 19.921875 0.691406 C 31.933594 0.691406 37.617188 -7.859375 37.617188 -17.152344 C 37.617188 -26.445312 31.835938 -35.195312 20.019531 -35.195312 C 9.589844 -35.195312 2.222656 -27.582031 2.222656 -17.105469 C 2.222656 -8.058594 7.910156 0.691406 19.921875 0.691406 Z M 19.921875 -4.398438 C 11.320312 -4.398438 7.710938 -10.925781 7.710938 -17.054688 C 7.710938 -24.566406 11.960938 -30.152344 20.019531 -30.152344 C 28.523438 -30.152344 32.132812 -23.429688 32.132812 -17.054688 C 32.132812 -10.527344 28.523438 -4.398438 19.921875 -4.398438 Z M 19.921875 -4.398438 "/></g></g></g><g fill="#a80000" fill-opacity="1"><g transform="translate(198.743581, 264.990628)"><g><path d="M 14.929688 0.0976562 L 20.710938 0.0976562 L 35.046875 -34.601562 L 28.867188 -34.601562 L 17.796875 -6.625 L 6.773438 -34.601562 L 0.542969 -34.601562 Z M 14.929688 0.0976562 "/></g></g></g><g fill="#a80000" fill-opacity="1"><g transform="translate(234.382403, 264.990628)"><g><path d="M 4.351562 0 L 9.835938 0 L 9.835938 -34.601562 L 4.351562 -34.601562 Z M 4.351562 0 "/></g></g></g><g fill="#a80000" fill-opacity="1"><g transform="translate(248.568727, 264.990628)"><g><path d="M 4.351562 0 L 9.886719 0 L 9.886719 -13.496094 L 27.878906 -13.496094 L 27.878906 -18.636719 L 9.886719 -18.636719 L 9.886719 -29.214844 L 28.820312 -29.214844 L 28.820312 -34.601562 L 4.351562 -34.601562 Z M 4.351562 0 "/></g></g></g><g fill="#a80000" fill-opacity="1"><g transform="translate(279.511718, 264.990628)"><g><path d="M 14.136719 0 L 19.675781 0 L 19.675781 -14.1875 L 33.417969 -34.355469 L 33.417969 -34.601562 L 26.742188 -34.601562 L 16.90625 -19.328125 L 7.367188 -34.601562 L 0.789062 -34.601562 L 0.789062 -34.355469 L 14.136719 -14.1875 Z M 14.136719 0 "/></g></g></g></svg>